<svg xmlns="http://www.w3.org/2000/svg" width="400" height="400" viewBox="0 0 400 400">
  <defs>
    <radialGradient id="glow" cx="50%" cy="50%" r="50%">
      <stop offset="0%" stop-color="#f97316" stop-opacity="0.07"/>
      <stop offset="100%" stop-color="#f97316" stop-opacity="0"/>
    </radialGradient>
  </defs>
  <!-- sfondo -->
  <rect width="400" height="400" fill="#09090b"/>
  <rect width="400" height="400" fill="url(#glow)"/>
  <!-- bordo cyberpunk -->
  <rect x="2" y="2" width="396" height="396" fill="none" stroke="#27272a" stroke-width="1.5"/>
  <!-- angoli tactical -->
  <path d="M2,30 L2,2 L30,2"   fill="none" stroke="#f97316" stroke-width="2.5"/>
  <path d="M370,2 L398,2 L398,30"  fill="none" stroke="#f97316" stroke-width="2.5"/>
  <path d="M2,370 L2,398 L30,398"  fill="none" stroke="#f97316" stroke-width="2.5"/>
  <path d="M370,398 L398,398 L398,370" fill="none" stroke="#f97316" stroke-width="2.5"/>
  <!-- mirino centrale -->
  <circle cx="200" cy="185" r="42" fill="none" stroke="#27272a" stroke-width="1.5"/>
  <circle cx="200" cy="185" r="6"  fill="#f97316" opacity="0.6"/>
  <line x1="200" y1="133" x2="200" y2="155" stroke="#f97316" stroke-width="1.5" opacity="0.5"/>
  <line x1="200" y1="215" x2="200" y2="237" stroke="#f97316" stroke-width="1.5" opacity="0.5"/>
  <line x1="148" y1="185" x2="170" y2="185" stroke="#f97316" stroke-width="1.5" opacity="0.5"/>
  <line x1="230" y1="185" x2="252" y2="185" stroke="#f97316" stroke-width="1.5" opacity="0.5"/>
  <!-- icona fotocamera schematica -->
  <rect x="168" y="168" width="64" height="48" rx="5" fill="none" stroke="#3f3f46" stroke-width="1.5"/>
  <circle cx="200" cy="192" r="13" fill="none" stroke="#3f3f46" stroke-width="1.5"/>
  <rect x="182" y="164" width="20" height="7" rx="2" fill="#27272a"/>
  <!-- testo -->
  <text x="200" y="258" font-family="ui-monospace,monospace" font-size="9" fill="#52525b" text-anchor="middle" letter-spacing="4">[ IMG NON DISPONIBILE ]</text>
  <text x="200" y="274" font-family="ui-monospace,monospace" font-size="8" fill="#3f3f46" text-anchor="middle" letter-spacing="2">KITWER26 · TACTICAL GRID</text>
</svg>
